<svg width="100" height="100" viewBox="0 0 100 100" fill="none" xmlns="http://www.w3.org/2000/svg">
<path fill-rule="evenodd" clip-rule="evenodd" d="M28.4876 0L71.5124 0C81.4182 0 85.0102 1.0314 88.6316 2.96814C92.253 4.90489 95.0951 7.74698 97.0319 11.3684C98.9686 14.9898 100 18.5818 100 28.4876V71.5124C100 81.4182 98.9686 85.0102 97.0319 88.6316C95.0951 92.253 92.253 95.0951 88.6316 97.0319C85.0102 98.9686 81.4182 100 71.5124 100H28.4876C18.5818 100 14.9898 98.9686 11.3684 97.0319C7.74698 95.0951 4.90489 92.253 2.96814 88.6316C1.0314 85.0102 0 81.4182 0 71.5124L0 28.4876C0 18.5818 1.0314 14.9898 2.96814 11.3684C4.90489 7.74698 7.74698 4.90489 11.3684 2.96814C14.9898 1.0314 18.5818 0 28.4876 0Z" fill="url(#paint0_linear)"/>
<mask id="mask0" mask-type="alpha" maskUnits="userSpaceOnUse" x="15" y="11" width="70" height="61">
<path d="M50.2777 11.6667L84.6781 71.25H15.8772L50.2777 11.6667Z" fill="white"/>
</mask>
<g mask="url(#mask0)">
<path d="M50.2777 11.6667L84.6781 71.25H15.8772L50.2777 11.6667Z" fill="url(#paint1_linear)"/>
<g style="mix-blend-mode:multiply" opacity="0.25">
<path fill-rule="evenodd" clip-rule="evenodd" d="M50.2779 11.6667L84.6783 71.25H21.9885L50.2779 11.6667Z" fill="#C31901"/>
</g>
</g>
<mask id="mask1" mask-type="alpha" maskUnits="userSpaceOnUse" x="25" y="11" width="60" height="67">
<path d="M50.2776 11.6667L84.6781 71.25L25.2554 77.3705L50.2776 11.6667Z" fill="white"/>
</mask>
<g mask="url(#mask1)">
<path d="M50.2776 11.6667L84.6781 71.25L25.2554 77.3705L50.2776 11.6667Z" fill="url(#paint2_linear)"/>
<g style="mix-blend-mode:multiply" opacity="0.25">
<path fill-rule="evenodd" clip-rule="evenodd" d="M50.2778 11.6667L84.6782 71.25L32.0044 79.6105L50.2778 11.6667Z" fill="#D85502"/>
</g>
</g>
<mask id="mask2" mask-type="alpha" maskUnits="userSpaceOnUse" x="36" y="11" width="49" height="72">
<path d="M50.2776 11.6667L84.6781 71.25L36.8025 82.6156L50.2776 11.6667Z" fill="white"/>
</mask>
<g mask="url(#mask2)">
<path d="M50.2776 11.6667L84.6781 71.25L36.8025 82.6156L50.2776 11.6667Z" fill="url(#paint3_linear)"/>
<g style="mix-blend-mode:multiply" opacity="0.5">
<path fill-rule="evenodd" clip-rule="evenodd" d="M50.2775 11.6667L84.678 71.25L45.3699 82.8044L50.2775 11.6667Z" fill="#EC8E02"/>
</g>
</g>
<path fill-rule="evenodd" clip-rule="evenodd" d="M50.2776 11.6667L84.678 71.25L50.2776 87.1389V11.6667Z" fill="url(#paint4_linear)"/>
<defs>
<linearGradient id="paint0_linear" x1="50" y1="0" x2="50" y2="100" gradientUnits="userSpaceOnUse">
<stop stop-color="#1F1F20"/>
<stop offset="1" stop-color="#101010"/>
</linearGradient>
<linearGradient id="paint1_linear" x1="50.2777" y1="11.6667" x2="50.2777" y2="71.25" gradientUnits="userSpaceOnUse">
<stop stop-color="#F61750"/>
<stop offset="1" stop-color="#C21600"/>
</linearGradient>
<linearGradient id="paint2_linear" x1="54.9667" y1="11.6667" x2="54.9667" y2="77.3705" gradientUnits="userSpaceOnUse">
<stop stop-color="#EE8E05"/>
<stop offset="1" stop-color="#D85502"/>
</linearGradient>
<linearGradient id="paint3_linear" x1="60.7403" y1="11.6667" x2="60.7403" y2="82.6156" gradientUnits="userSpaceOnUse">
<stop stop-color="#F7C105"/>
<stop offset="1" stop-color="#EC8E02"/>
</linearGradient>
<linearGradient id="paint4_linear" x1="67.4778" y1="11.6667" x2="67.4778" y2="87.1389" gradientUnits="userSpaceOnUse">
<stop stop-color="#FFF076"/>
<stop offset="1" stop-color="#FFC400"/>
</linearGradient>
</defs>
</svg>
